<svg width="58" height="53" viewBox="0 0 58 53" fill="none" xmlns="http://www.w3.org/2000/svg">
<path d="M28.9985 37.2441C30.6199 37.2441 31.979 38.6028 31.979 40.2237C31.979 41.8445 30.6199 43.2032 28.9985 43.2032C27.4368 43.2032 26.0181 41.8445 26.0896 40.2952C26.0181 38.5909 27.3652 37.2441 28.9985 37.2441Z" fill="#E51010"/>
<path d="M1.41127 47.8037C-0.460468 44.5739 -0.472389 40.7243 1.38743 37.5064L20.0571 5.18439C21.905 1.93074 25.2431 0 28.9866 0C32.7301 0 36.0682 1.94266 37.9161 5.17248L56.6096 37.5302C58.4694 40.7839 58.4575 44.6573 56.5739 47.8871C54.714 51.0812 51.3878 53 47.6682 53H10.3765C6.64498 53 3.29493 51.0573 1.41127 47.8037ZM5.46471 45.4677C6.50192 47.2555 8.33789 48.3162 10.3885 48.3162H47.6801C49.7069 48.3162 51.5309 47.2793 52.5443 45.5273C53.5695 43.7515 53.5815 41.6301 52.5562 39.8424L33.8627 7.49651C32.8493 5.72071 31.0372 4.67191 28.9866 4.67191C26.948 4.67191 25.1239 5.73263 24.1105 7.50843L5.42895 39.8543C4.42751 41.5943 4.43943 43.6919 5.46471 45.4677Z" fill="#E51010"/>
<path d="M29.7376 16.3283C31.1564 16.7335 32.0386 18.0206 32.0386 19.5819C31.967 20.5234 31.9074 21.4769 31.8359 22.4184C31.6332 26.0058 31.4306 29.5216 31.2279 33.109C31.1564 34.3247 30.2145 35.2066 28.9985 35.2066C27.7825 35.2066 26.8287 34.2651 26.7691 33.0375C26.7691 32.2986 26.7691 31.6192 26.6976 30.8684C26.5664 28.5682 26.4234 26.268 26.2922 23.9678C26.2207 22.478 26.0895 20.9883 26.018 19.4985C26.018 18.9622 26.0896 18.4854 26.2922 18.0087C26.9002 16.6739 28.3189 15.9945 29.7376 16.3283Z" fill="#E51010"/>
</svg>
